<?xml version="1.0" encoding="utf-8"?>
<!-- Generator: Adobe Illustrator 27.6.1, SVG Export Plug-In . SVG Version: 6.00 Build 0)  -->
<svg version="1.1" id="Capa_1" xmlns="http://www.w3.org/2000/svg" xmlns:xlink="http://www.w3.org/1999/xlink" x="0px" y="0px"
	 viewBox="0 0 800 800" style="enable-background:new 0 0 800 800;" xml:space="preserve">
<style type="text/css">
	.st0{fill:#5B21B6;}
	.st1{fill:#FFFFFF;}
</style>
<g>
	<g>
		<path class="st0" d="M800,400C800,179.4,620.6,0,400,0S0,179.4,0,400s179.4,400,400,400S800,620.6,800,400z M40,400
			C40,201.5,201.5,40,400,40s360,161.5,360,360S598.5,760,400,760S40,598.5,40,400z"/>
		<path class="st1" d="M414.2,587.9l112.4-112.4c7.8-7.8,7.8-20.4,0-28.2s-20.4-7.8-28.2,0l-78.3,78.3V226.3
			c0-11.1-9-20.1-20.1-20.1s-20.1,9-20.1,20.1v299.2l-78.3-78.3c-7.8-7.8-20.4-7.8-28.2,0s-7.8,20.4,0,28.2l112.4,112.4
			c3.9,3.9,9,5.9,14.2,5.9C405.2,593.6,410.3,591.8,414.2,587.9z"/>
	</g>
</g>
</svg>
